<?xml version="1.0" encoding="utf-8"?>
<!-- Generator: Adobe Illustrator 25.1.0, SVG Export Plug-In . SVG Version: 6.00 Build 0)  -->
<svg version="1.1" id="Camada_1" xmlns="http://www.w3.org/2000/svg" xmlns:xlink="http://www.w3.org/1999/xlink" x="0px" y="0px"
	 viewBox="0 0 1080 1080" style="enable-background:new 0 0 1080 1080;" xml:space="preserve">
<style type="text/css">
	.st0{fill:#130073;}
</style>
<g>
	<g>
		<g>
			<g>
				<g>
					<path class="st0" d="M903.4,319.12c-12.81-13.58-25.62-26.51-34.97-35.95c-8.37-8.45-8.38-8.53-8.42-8.75
						c11.65,9.76,22.86,20.03,33.6,30.77c18.61,18.61,35.8,38.64,51.39,59.91c1.63,2.22,3.24,4.45,4.83,6.7l0.18,0.28
						C934.43,354.45,919.54,336.23,903.4,319.12"/>
					<path class="st0" d="M903.4,373.22c-37.05-34.78-51.47-62.9-39.62-64.81c19.77-3.18,83.44,65.68,86.24,93.27
						C948.26,414.91,907.98,377.52,903.4,373.22"/>
					<path class="st0" d="M903.4,479.26c-41.52-27.06-56.1-74.45-32.08-80.31c25.79-6.29,76.54,45.17,78.7,79.8
						C948.33,502.87,914.95,486.79,903.4,479.26"/>
					<path class="st0" d="M903.4,622.24c-43.73-10.7-57.36-69.98-28.88-88.13c26.98-17.2,73.55,17.68,75.49,56.54
						C948.5,619.93,921.84,626.75,903.4,622.24"/>
					<path class="st0" d="M903.4,777.73c-38.42,8.68-55.02-35.63-34.97-68.5c23.33-38.26,73.64-29.4,80.8,5.01
						c0.48,2.3,0.67,5.44,0.79,7.79C948.48,753.18,921.29,773.68,903.4,777.73"/>
					<path class="st0" d="M991.12,455.56c-29.33-56.54-29.33-56.54-29.84-59.68c0.22-0.15,0.52-0.35,0.74-0.5
						c15.52,11.58,54.55,98.85,57.25,118.85c-1.11-1.48-1.11-1.48-3.72-7.46C1010.75,495.78,1004.17,480.72,991.12,455.56"/>
					<path class="st0" d="M991.12,507.85c-36.28-54.39-31.37-66.94-25.48-65.36c18.03,4.84,51.97,77,53.64,100.71
						c-0.05,0.48-0.18,1.14-0.43,1.55C1018.04,544.81,1015.88,544.96,991.12,507.85"/>
					<path class="st0" d="M991.12,588.92c-30.25-24.33-37.13-62.72-21.68-64.76c19.16-2.54,48.59,46.82,49.84,70.11
						C1018.25,610.54,991.39,589.14,991.12,588.92"/>
					<path class="st0" d="M991.12,688.57c-27.47,1.89-38.84-39.07-21.68-56.68c17.19-17.65,48.68,4.53,49.84,28.8
						C1018.41,678.45,1001.97,687.83,991.12,688.57"/>
					<path class="st0" d="M633.74,170.58c-16.13-3.51-54.44-11.92-61.81-14.13c-0.01-0.05-0.03-0.13-0.04-0.19
						c14.01,1.13,27.86,2.82,41.53,5.05c27.15,4.43,53.58,10.98,79.12,19.48c4.54,1.51,9.05,3.09,13.54,4.72l0.3,0.15
						C701.64,185.23,664.26,177.22,633.74,170.58"/>
					<path class="st0" d="M633.74,247.66c-49.45-11.13-77.55-38.68-53.69-52.64c31.03-18.15,122.4,4.44,126.32,38.84
						C703.83,255.24,660.47,253.67,633.74,247.66"/>
					<path class="st0" d="M633.74,398.75c-55.22-10.62-81.96-61.89-46.15-88.48c36.96-27.44,115.39-2.24,118.78,49.1
						C703.92,395.69,662.42,404.26,633.74,398.75"/>
					<path class="st0" d="M633.74,602.47c-61.39-7.9-85.05-83.75-36.7-117.63c40.55-28.41,106.26-2.93,109.34,56.74
						C703.89,589.7,662.4,606.16,633.74,602.47"/>
					<path class="st0" d="M633.74,824.02c-58.15-1.84-83.45-69.99-41.64-112.18c39.57-39.93,110.99-21.65,114.28,43.66
						C703.79,807.01,660.45,824.86,633.74,824.02"/>
					<path class="st0" d="M779.84,248.06c-38.98-21.73-63.13-43.03-51.67-45.58c19.8-4.4,109.88,49.42,113.39,67.75
						C838.91,280.85,780.43,248.39,779.84,248.06"/>
					<path class="st0" d="M779.84,351.23c-45.73-21.25-70.32-63.56-43.84-75.46c31.6-14.2,102.64,32.34,105.57,69.16
						C839.45,369.43,802.58,361.79,779.84,351.23"/>
					<path class="st0" d="M779.84,511.21c-50.41-14.68-73.49-77.8-36.32-99.32c33.11-19.17,95.26,15.09,98.04,64.74
						C839.5,512.28,804.23,518.31,779.84,511.21"/>
					<path class="st0" d="M779.84,707.85c-49.92-2.89-73.34-72.64-36.32-108.15c33.16-31.81,95.32-9.18,98.04,48.23
						C839.5,691.61,804.23,709.26,779.84,707.85"/>
					<path class="st0" d="M317.02,205.77c-17.69,7.7-34.99,16.33-53.09,23.08c-0.01-0.04-0.02-0.1-0.03-0.14
						c9.74-5.9,19.68-11.49,29.83-16.75c23.58-12.23,48.23-22.68,73.78-31.18c6.42-2.14,12.89-4.15,19.42-6.04l0.3-0.05
						C383.13,177,374.33,180.83,317.02,205.77"/>
					<path class="st0" d="M317.02,277.41c-33.89,11.04-62.39,8.36-50.81-13.22c19.89-37.05,113.49-70.37,120.67-42.95
						c0.21,0.81,0.24,1.93,0.34,2.76C384.62,247.1,342.78,269.02,317.02,277.41"/>
					<path class="st0" d="M317.02,417.82c-40.96,6.52-69.43-20.71-43.53-58.57c32.08-46.9,107.32-54.76,113.39-11.85
						c0.21,1.47,0.24,3.46,0.34,4.95C384.71,390.2,344.66,413.42,317.02,417.82"/>
					<path class="st0" d="M317.02,607.16c-48.33-2.15-74.54-60.17-32.21-101.47c36.95-36.05,99.4-24.4,102.41,33
						C384.67,587.95,344.64,608.38,317.02,607.16"/>
					<path class="st0" d="M317.02,813.05c-55.7-13.21-72.75-83.23-27.64-113.53c37.92-25.47,94.93,0.19,97.85,57.93
						C384.71,806.69,344.66,819.6,317.02,813.05"/>
					<path class="st0" d="M468.45,190.96c-40.84,3.14-67.74-2.2-59.96-11.91c12.48-15.57,132.96-33.48,138.31-10.94
						C544.11,179.92,499.36,188.58,468.45,190.96"/>
					<path class="st0" d="M468.45,308.13c-51.82,0.83-78.38-30.1-49.85-58.05c34.94-34.24,124.21-32.92,128.2,11.88
						C544.07,292.99,499.34,307.64,468.45,308.13"/>
					<path class="st0" d="M468.45,489.82c-57.59-2.9-82.08-60.4-41.59-97.67c40.38-37.16,116.39-22.94,119.94,35.23
						C544.03,473.03,499.32,491.38,468.45,489.82"/>
					<path class="st0" d="M468.45,713.15c-59.94-6.7-82.96-83.9-36.77-123.28c41.58-35.44,111.78-12.92,115.12,52.72
						C544.05,697,499.32,716.6,468.45,713.15"/>
					<path class="st0" d="M468.45,923.01c-60.51-8.67-83.19-76.74-36.77-110.37c41.52-30.07,111.71-7.01,115.12,51.96
						C544.04,912.24,499.32,927.44,468.45,923.01"/>
					<path class="st0" d="M88.66,407.72c-13.73,22.45-20.89,36.67-27.81,50.42c0-0.01-0.01-0.03-0.01-0.04
						c3.9-8.68,8.04-17.22,12.4-25.64c12.22-23.58,26.22-46.1,41.82-67.37c5.06-6.91,10.3-13.68,15.69-20.32l0.19-0.21
						C116.94,365.68,101.89,386.09,88.66,407.72"/>
					<path class="st0" d="M88.66,448.11c-24.01,32.17-25.81,32.43-27.39,32.66c-3.42-3.38,13.92-41.32,27.39-62.6
						c28.66-45.26,40.27-44.45,40.38-44.43c1.5,0.29,1.71,1.81,1.89,3.16C129.77,388.4,116.34,411.02,88.66,448.11"/>
					<path class="st0" d="M88.66,527.28c-7.03,5.69-29.82,22.82-27.81,4.42c3.72-34.06,54.52-99.49,68.2-78.47
						c1.5,2.3,1.72,5.54,1.89,7.9C129.27,487.69,103.58,515.21,88.66,527.28"/>
					<path class="st0" d="M88.66,634.03c-28.29,3.25-39.39-23.22-12.4-55.79c24.78-29.91,51.69-24.81,54.46,0.97
						c0.13,1.25,0.15,2.93,0.22,4.19C129.49,612.22,108.31,631.77,88.66,634.03"/>
					<path class="st0" d="M88.66,750.12c-28.08-17.14-41.68-60.3-6.6-68.62c21.77-5.16,47.29,13.19,48.87,45.47
						C129.46,756.3,107.84,761.82,88.66,750.12"/>
					<path class="st0" d="M185.89,311.21c-37.33,30.13-40.7,28.25-41.8,27.63c-4-14.57,84.56-93.58,98.71-88.07
						c0.57,0.22,0.97,1.12,1.13,1.71C241.51,265.46,198.89,300.71,185.89,311.21"/>
					<path class="st0" d="M185.89,398.89c-24.71,13.95-46.78,16.7-41.14-5.04c10.41-40.11,80.88-92.45,96.67-71.8
						c1.98,2.6,2.27,5.85,2.5,8.46C241.77,357.86,208.04,386.39,185.89,398.89"/>
					<path class="st0" d="M185.89,534.86c-34.04,7.44-55.84-17.41-31.81-55.96c27.39-43.93,79.62-55.9,88.72-20.32
						c0.71,2.78,0.96,6.63,1.13,9.49C241.82,505.84,208.72,529.86,185.89,534.86"/>
					<path class="st0" d="M185.89,701.98c-42.02-7.76-59.69-65.21-18.12-95.51c31.62-23.05,73.82-8.59,76.16,40.53
						C241.8,691.92,208.71,706.19,185.89,701.98"/>
					<path class="st0" d="M185.89,859.03c-42.23-22.64-59.93-80.08-18.12-91.27c31.62-8.46,73.82,19.9,76.16,63.85
						C241.97,867.2,212.88,873.5,185.89,859.03"/>
				</g>
			</g>
		</g>
	</g>
</g>
</svg>
